<svg xmlns="http://www.w3.org/2000/svg" xmlns:xlink="http://www.w3.org/1999/xlink" aria-hidden="true"><symbol id="documentation-icon" viewBox="0 0 384 384"><path d="m384 345.6-192-224.64v133.12l42.88 38.4 6.4 5.76V121.6l-6.4-5.76-6.4-5.76V80H64v229.76l-6.4 5.76-6.4 5.76v38.4h128v6.4l6.4 5.76 6.4 5.76h86.4zM320 80v224H128v-80h-42.88L192 32z" fill="#1c9ef6"/><path d="M192 32v192h-42.88L256 32z" fill="#40beff"/><path d="M192 224v96h-42.88l106.88-96z" fill="#1c9ef6"/><path d="M64 80v224h42.88L0 80z" transform="matrix(1 0 0-1 352 80)" fill="#40beff"/><path d="M64 80v224h42.88L0 80z" transform="matrix(1 0 0-1 320 80)" fill="#1c9ef6"/></symbol><symbol id="social-icon" viewBox="0 0 384 384"><circle cx="192" cy="192" r="165.12" fill="none" stroke="#2c3e50" stroke-width="32"/><circle cx="264" cy="160" r="20" fill="#e74c3c"/><circle cx="192" cy="192" r="20" fill="#e67e22"/><circle cx="120" cy="160" r="20" fill="#f1c40f"/><circle cx="192" cy="192" r="80" fill="#2c3e50" stroke="#ecf0f1" stroke-width="16"/><circle cx="192" cy="192" r="60" fill="#2c3e50" stroke="#3498db" stroke-width="8"/></symbol><symbol id="github-icon" viewBox="0 0 384 384"><path fill="#2c3e50" d="M192 32C96 32 0 128 0 224c0 76.8 52.224 144 128 167.2V352l57.6-32c17.6 4.8 36.8 7.2 56 7.2 19.2 0 38.4-2.4 56-7.2l57.6 32v-44.8c75.776-23.2 128-90.4 128-167.2 0-96-96-192-192-192zm-96 336c-26.4 0-48-21.6-48-48s21.6-48 48-48 48 21.6 48 48-21.6 48-48 48zm144-48c0 26.4-21.6 48-48 48s-48-21.6-48-48 21.6-48 48-48 48 21.6 48 48z"/><path fill="#ecf0f1" d="M192 352v-48h-32v48c-17.6 0-32-14.4-32-32v-64h-32v64c0 26.4 21.6 48 48 48v48zm96-48c0 0-32 .336-32-.048v-47.952c26.4 0 48 21.6 48 48v64h-16c0-17.6-14.4-32-32-32v16h32z"/><path fill="#2c3e50" d="M192 320v-80h-32v80c-17.6 0-32-14.4-32-32v-48h-32v48c0 26.4 21.6 48 48 48v64h16zm96-64v-16c-17.6 0-32-14.4-32-32v-32h-32v32c0 26.4 21.6 48 48 48v48h16z"/></symbol><symbol id="discord-icon" viewBox="0 0 384 384"><path fill="#5865F2" d="M333.36 276.64c-22.4-16.64-53.12-28.8-86.08-31.36 6.72-16 11.2-33.12 13.44-51.36-32 6.08-63.68 9.92-96.8 9.92-33.12 0-64.8-3.84-96.8-9.92 2.24 18.24 6.72 35.36 13.44 51.36-32.96 2.56-63.68 14.72-86.08 31.36-20.8 15.52-36.16 36.8-43.68 60.8 24.16 18.4 56.32 33.28 90.56 37.76-12.96-17.76-26.4-36.48-35.84-56-9.44 19.52-22.88 38.24-35.84 56 34.24-4.48 66.4-19.36 90.56-37.76-7.52-24-22.88-45.28-43.68-60.8zM113.12 235.68c-15.52 0-27.84-14.24-27.84-31.52s12.32-31.52 27.84-31.52c15.52 0 28.16 14.24 28.16 31.52s-12.64 31.52-28.16 31.52zm158.08 0c-15.52 0-28.16-14.24-28.16-31.52s12.64-31.52 28.16-31.52c15.52 0 27.84 14.24 27.84 31.52s-12.32 31.52-27.84 31.52z"/></symbol><symbol id="x-icon" viewBox="0 0 384 384"><path fill="#000" d="M320 352l-32-32-64-64-32 32-32-32-32 32 32 32-96 96L96 352l32-32-96-96 96-96 32 32 64-64-32-32-32-32-32 32 32-32-64-64 32-32 64 64 32-32 32 32 32-32 32 32z"/></symbol><symbol id="bluesky-icon" viewBox="0 0 384 384"><linearGradient id="b" x1="-1023" x2="-641" y1="109.6" y2="109.6" gradientTransform="matrix(0 -1 1 0 0 384)" gradientUnits="userSpaceOnUse"><stop offset="0" stop-color="#0fd"/><stop offset="1" stop-color="#00f"/></linearGradient><path fill="url(#b)" d="m320 352-64-192H192l-64 192-128 32v-224l96-160 96 160h80l96-160 96 160v224z"/></symbol></svg>