<svg xmlns="http://www.w3.org/2000/svg" viewBox="0 0 161 138"><path fill="#61DAFB" d="M160.784 68.277c-1.516-12.202-8.671-18.956-26.304-25.526-6.188-2.313-13.448-4.45-15.727-2.075-2.279 2.375-1.037 6.275 3.853 10.925 5.702 5.407 8.816 9.09 6.695 14.462-2.789 7.061-11.418 9.968-23.888 8.069-10.692-1.617-12.944-2.17-22.456-3.453-14.365-1.935-29.464-4.045-42.328-4.883-21.936-1.431-43.152.249-58.04 4.599-2.443.715-4.456 1.518-4.456 1.518s4.867-3.197 12.514-5.24c12.244-3.272 31.216-5.426 53.527-3.958 15.356 1.013 31.451 4.011 45.243 9.016 9.105 3.312 12.663 6.738 14.006 11.977 1.343 5.239-1.516 12.202-6.862 19.016-3.965 5.055-9.65 10.275-15.727 12.587-6.078 2.312-13.448 4.449-15.727 11.263s4.456 13.275 14.006 14.462c1.932.239 4.012.39 6.233.482 10.692-5.151 22.456-10.337 32.096-15.527 6.078-3.279 10.692-6.479 10.692-10.337 0-8.069-6.862-12.361-11.143-14.462-4.28-2.101-9.65-3.199-15.727-4.883-12.804-3.191-26.854-5.357-35.596-8.069 3.981-3.879 8.14-8.34 10.692-14.462 2.907-6.969 1.516-16.321-3.853-22.456z"/><path fill="#61DAFB" d="M106.667 122.792c12.621 1.443 21.934-1.994 30.064-6.862 4.989-2.987 9.306-6.589 12.514-10.337 1.516-1.756.998-2.753-.234-3.369-2.279-1.135-6.078-.482-10.458.482-12.804 2.869-27.023 3.196-40.812 2.841-10.692-.193-21.936.337-30.064 3.958-3.342 1.484-5.424 3.389-4.639 5.279 1.516 3.619 12.804 5.279 23.888 4.883 3.465-.121 6.662-.47 9.65-.932l.01.01 10.09-4.12zM67.111 95.915c8.14 1.994 14.517-.482 20.314-3.958 4.633-2.777 8.14-5.633 10.458-8.069.996-1.045.703-2.032-.703-2.513-2.279-.839-6.078-.193-10.458.645-12.804 2.513-26.854 2.763-40.812 2.409-10.692-.193-21.936-.482-30.064 3.958-3.342 1.813-5.424 3.719-4.639 5.609 1.516 3.619 12.804 5.279 23.888 4.883 3.607-.193 6.961-.527 10.09-1.005l10.068 3.1z"/></svg>