<svg xmlns="http://www.w3.org/2000/svg" xmlns:xlink="http://www.w3.org/1999/xlink" aria-hidden="true" role="img" class="iconify iconify--logos" width="31.88" height="32" viewBox="0 0 256 257"><defs><linearGradient id="IconifyId181c8df5060017c27c2d" x1="-.828%" x2="57.636%" y1="7.652%" y2="78.411%"><stop offset="0%" stop-color="#41D1FF"></stop><stop offset="100%" stop-color="#BD34FE"></stop></linearGradient><linearGradient id="IconifyId181c8df5060017c27c2d2" x1="43.376%" x2="50.316%" y1="2.242%" y2="89.189%"><stop offset="0%" stop-color="#FFBD4F"></stop><stop offset="100%" stop-color="#FF692E"></stop></linearGradient></defs><path fill="url(#IconifyId181c8df5060017c27c2d)" d="M255.153 37.938L134.897 252.976c-2.483 4.44-8.862 4.466-11.382.07L.947 37.938c-2.746-4.814 1.371-10.646 6.523-9.67l120.71 22.517a6.537 6.537 0 0 0 2.823-.083l126.856-21.517c5.161-.86 9.306 5.209 6.294 9.693"></path><path fill="url(#IconifyId181c8df5060017c27c2d2)" d="M185.432.063L96.44 17.501a3.268 3.268 0 0 0-2.634 3.014l-2.422 47.565c-.3 5.925 7.196 5.988 7.342.063l1.15-53.935c.2-2.866 1.685-4.02 4.4-3.885l62.912 2.587c5.562.207 2.16 6.872-1.68 7.131L43.35 33.272c-2.443.165-4.152 1.952-4.862 4.263l-21.002 52.033c-2.252 5.57 7.432 6.656 7.696.22l1.37-28.485c.217-4.484 4.093-4.13 4.6.11l21.112 86.664c1.04 4.266-3.444 7.84-7.574 6.751L.585 133.085C1.678 51.491.38 24.214 19.268.732c22.711-28.2 92.401-22.67 166.165.33" style="fill:url(#IconifyId181c8df5060017c27c2d)"></path></svg>